<svg width="239" height="199" viewBox="0 0 239 199" fill="none" xmlns="http://www.w3.org/2000/svg">
<path d="M198.832 187.903L198.418 193.421L190.004 190.662L193.452 186.523L198.832 187.903Z" fill="#FEB8B8"/>
<path d="M229.454 186.109L229.04 191.489L224.35 192.179L221.591 189.558L224.764 184.453L229.454 186.109Z" fill="#FEB8B8"/>
<path d="M232.902 117.403C232.902 117.403 236.627 121.817 231.937 128.578C227.247 135.338 221.592 141.96 221.592 141.96L211.107 161.827C211.107 161.827 205.728 181.28 204.486 181.832C203.245 182.384 202.555 180.177 203.245 182.522C203.934 184.867 203.521 184.729 202.969 184.868C202.417 185.006 200.9 184.73 201.452 185.696C202.003 186.662 202.417 186.662 201.314 186.662C200.21 186.662 199.797 185.972 199.797 186.938C199.797 187.903 198.831 190.111 198.831 190.111C198.831 190.111 192.072 188.179 191.796 187.351C191.52 186.523 193.589 186.11 193.176 185.282C192.762 184.454 192.624 184.454 192.624 183.213C192.624 181.971 193.452 181.695 193.452 181.695C193.452 181.695 194.141 181.419 193.865 180.867C193.59 180.315 192.486 180.591 193.865 179.901C195.245 179.211 200.901 158.102 200.901 158.102C200.901 158.102 200.901 147.616 202.694 144.167C204.487 140.719 203.107 116.161 207.385 115.885C211.662 115.609 232.902 117.403 232.902 117.403Z" fill="#2F2E41"/>
<path d="M231.523 125.266L230.695 146.651C230.695 146.651 234.833 167.346 233.454 173.692C232.074 180.038 233.04 179.21 232.212 180.314C231.385 181.418 230.695 180.866 231.385 181.832C232.074 182.798 232.487 183.074 231.385 184.178C230.283 185.282 229.729 187.903 229.729 187.903L222.695 187.213C222.695 187.213 224.488 184.04 223.797 183.35C223.106 182.66 221.314 183.764 222.695 182.248C224.076 180.732 224.902 181.42 224.074 180.73C223.246 180.041 222.005 180.317 223.109 179.213C224.212 178.109 225.454 178.11 224.35 177.695C223.246 177.28 222.004 177.695 222.557 176.867C223.109 176.039 223.798 175.074 223.798 175.074L222.143 162.519C222.143 162.519 220.212 158.38 220.764 156.587C221.315 154.793 218.418 140.031 218.418 140.031L231.523 125.266Z" fill="#2F2E41"/>
<path d="M228.489 188.868C228.489 188.868 229.868 187.488 230.282 188.316C230.696 189.144 233.73 196.594 231.937 197.146C230.145 197.698 227.523 198.248 226.144 197.836C224.765 197.423 221.868 195.49 218.42 195.49C214.971 195.49 212.075 193.972 212.075 193.42C212.075 192.869 211.523 189.557 214.144 189.557C216.764 189.557 221.592 186.522 221.592 186.522C221.592 186.522 222.694 184.314 223.247 184.453C223.8 184.591 223.385 189.005 223.385 189.005C223.385 189.005 226.557 192.041 228.489 188.868Z" fill="white"/>
<path d="M197.867 190.662C197.867 190.662 199.108 187.626 200.349 188.315C201.591 189.005 200.763 197.558 200.763 197.558C200.763 197.558 199.661 199.352 196.487 198.938C193.313 198.524 184.901 197.558 182.969 197.972C181.038 198.386 175.797 196.041 177.176 192.867C177.176 192.867 177.866 191.074 181.176 191.212C184.487 191.35 190.556 187.349 190.556 187.349C190.556 187.349 191.522 184.589 191.797 184.865C192.073 185.141 192.349 189.97 192.349 189.97C192.349 189.97 195.936 192.317 197.867 190.662Z" fill="white"/>
<path d="M215.936 63.4584C220.355 63.4584 223.936 59.8758 223.936 55.4564C223.936 51.0369 220.355 47.4543 215.936 47.4543C211.518 47.4543 207.936 51.0369 207.936 55.4564C207.936 59.8758 211.518 63.4584 215.936 63.4584Z" fill="#FEB8B8"/>
<path d="M222.143 56.0081C222.143 56.0081 226.419 64.5619 227.936 65.3898C229.454 66.2177 217.591 71.3225 217.591 71.3225C217.591 71.3225 215.66 62.9066 213.315 61.1132C210.97 59.3197 222.143 56.0081 222.143 56.0081Z" fill="#FEB8B8"/>
<path d="M209.867 125.956L209.315 131.199C209.315 131.199 203.384 129.129 205.315 125.266L209.867 125.956Z" fill="#FEB8B8"/>
<path d="M207.523 118.092C211.661 122.506 233.592 118.781 233.592 118.781L233.317 115.608L236.076 112.713L235.249 99.1912C235.249 99.1912 237.73 92.8455 238.143 83.1879C238.168 82.5943 238.133 81.9997 238.036 81.4134C236.614 72.7621 222.53 67.19 222.143 67.3209C221.949 67.3851 219.876 68.4657 217.712 69.6025C215.228 70.9076 212.627 72.2878 212.627 72.2878C209.316 73.5315 209.868 93.3986 208.764 95.1918C207.659 96.985 208.764 103.191 208.764 103.191L207.523 109.123C207.523 109.123 203.384 113.679 207.523 118.092Z" fill="#F0F0F0"/>
<path opacity="0.1" d="M220.891 74.2938C220.891 74.2938 224.754 85.8828 223.926 93.7469C223.098 101.611 214.132 124.099 214.132 124.099L211.099 125.755V129.618L208.965 123.835L214.834 111.56C214.834 111.56 207.51 69.1893 220.891 74.2938Z" fill="black"/>
<path opacity="0.1" d="M217.269 70.8165C221.271 68.6095 227.341 74.4063 233.685 80.6126C235.964 82.8408 237.282 82.6166 238.037 81.4131C236.615 72.7618 222.531 67.1897 222.144 67.3206C221.949 67.3848 219.876 68.4654 217.713 69.6022L217.269 70.8165Z" fill="black"/>
<path d="M217.271 69.7501L218.926 65.1973C218.926 65.1973 230.237 59.8166 237.685 65.1973L238.927 72.9232C238.927 72.9232 240.029 85.7539 233.685 79.5456C227.341 73.3373 221.271 67.5425 217.271 69.7501Z" fill="#F0F0F0"/>
<path d="M220.488 72.426C220.488 72.426 224.351 84.015 223.523 91.8791C222.695 99.7432 213.73 122.231 213.73 122.231L210.695 123.888V127.751L204.35 125.958L205.729 121.405C205.729 121.405 203.522 118.646 205.04 117.818C206.557 116.99 206.281 112.437 206.281 112.437C206.281 112.437 207.109 67.3212 220.488 72.426Z" fill="#F0F0F0"/>
<path d="M223.068 58.8061C222.938 58.1877 222.955 57.5223 222.659 56.9641C222.215 56.1271 221.193 55.7769 220.249 55.6944C219.044 55.5895 217.829 55.7981 216.622 55.7156C215.415 55.633 214.126 55.1728 213.525 54.1228C213.286 53.7039 213.168 53.2106 212.85 52.8474C212.188 52.0916 210.982 52.2086 210.032 52.5325C209.081 52.8565 208.089 53.3296 207.117 53.0764C206.3 50.7894 207.307 48.1513 209.047 46.4579C210.788 44.7645 213.135 43.8532 215.466 43.174C218.541 42.278 222.002 41.7486 224.829 43.2537C228.928 45.4361 230.375 51.2128 229.997 55.5183C229.854 57.1458 229.62 58.9887 228.305 60.0874C226.377 61.698 223.651 61.5598 223.068 58.8061Z" fill="#2F2E41"/>
<path d="M172.872 0.0984955H0.0743408V110.789H172.872V0.0984955Z" fill="#E6E6E6"/>
<path d="M168.496 13.9814H5.5802V104.24H168.496V13.9814Z" fill="white"/>
<path d="M172.798 0H0V7.3426H172.798V0Z" fill="#8D50F0"/>
<path d="M5.45556 5.11497C6.20706 5.11497 6.81627 4.50563 6.81627 3.75397C6.81627 3.00231 6.20706 2.39297 5.45556 2.39297C4.70406 2.39297 4.09485 3.00231 4.09485 3.75397C4.09485 4.50563 4.70406 5.11497 5.45556 5.11497Z" fill="white"/>
<path d="M10.62 5.11497C11.3715 5.11497 11.9807 4.50563 11.9807 3.75397C11.9807 3.00231 11.3715 2.39297 10.62 2.39297C9.86849 2.39297 9.25928 3.00231 9.25928 3.75397C9.25928 4.50563 9.86849 5.11497 10.62 5.11497Z" fill="white"/>
<path d="M15.7845 5.11497C16.536 5.11497 17.1452 4.50563 17.1452 3.75397C17.1452 3.00231 16.536 2.39297 15.7845 2.39297C15.033 2.39297 14.4238 3.00231 14.4238 3.75397C14.4238 4.50563 15.033 5.11497 15.7845 5.11497Z" fill="white"/>
<path d="M34.0827 26.6323L23.3064 37.2764L34.0827 47.9201L36.5074 45.4949L28.3587 37.3433L36.5755 29.1248L34.0827 26.6323Z" fill="#8D50F0"/>
<path d="M42.9125 26.6323L53.6885 37.2764L42.9125 47.9201L40.4878 45.4949L48.6371 37.3436L40.4197 29.1248L42.9125 26.6323Z" fill="#8D50F0"/>
<path d="M77.7693 29.3034C76.8879 29.3034 76.1735 29.8105 76.1735 30.4358C76.1735 31.061 76.8879 31.5681 77.7693 31.5681H153.001C153.882 31.5681 154.597 31.061 154.597 30.4358C154.597 29.8105 153.882 29.3034 153.001 29.3034H77.7693Z" fill="#E6E6E6"/>
<path d="M152.253 91.3409H25.6947C24.4009 91.3409 23.3525 90.5938 23.3511 89.6732V67.3314C23.3525 66.4108 24.4009 65.6637 25.6947 65.6637H152.253C153.547 65.6637 154.595 66.4108 154.596 67.3314V89.6729C154.595 90.5936 153.547 91.3398 152.253 91.3409ZM25.6947 66.3302C24.9184 66.3302 24.2893 66.7785 24.2884 67.3308V89.6724C24.2884 90.2247 24.9184 90.6724 25.6947 90.673H152.253C153.029 90.673 153.658 90.2247 153.659 89.6724V67.3314C153.659 66.7791 153.029 66.3313 152.253 66.3308L25.6947 66.3302Z" fill="#E6E6E6"/>
<path d="M38.7272 84.156C41.8543 84.156 44.3893 81.6205 44.3893 78.4927C44.3893 75.3649 41.8543 72.8293 38.7272 72.8293C35.6001 72.8293 33.0651 75.3649 33.0651 78.4927C33.0651 81.6205 35.6001 84.156 38.7272 84.156Z" fill="#E6E6E6"/>
<path d="M54.6969 73.9634C54.3967 73.963 54.1086 74.0819 53.896 74.294C53.6834 74.5061 53.5637 74.7939 53.5634 75.0942C53.563 75.3945 53.6819 75.6827 53.8939 75.8953C54.1059 76.108 54.3937 76.2276 54.694 76.228H108.069C108.369 76.228 108.657 76.1087 108.869 75.8964C109.081 75.684 109.201 75.396 109.201 75.0957C109.201 74.7954 109.081 74.5074 108.869 74.295C108.657 74.0827 108.369 73.9634 108.069 73.9634H54.6969Z" fill="#8D50F0"/>
<path d="M54.6969 80.7576C54.5482 80.7574 54.401 80.7865 54.2636 80.8433C54.1261 80.9 54.0012 80.9832 53.896 81.0882C53.6834 81.3003 53.5637 81.5882 53.5634 81.8885C53.563 82.1888 53.6819 82.477 53.8939 82.6896C54.1059 82.9022 54.3937 83.0219 54.694 83.0223H77.6625C77.9628 83.0227 78.2509 82.9038 78.4635 82.6917C78.676 82.4796 78.7957 82.1917 78.7961 81.8914C78.7965 81.5911 78.6776 81.3029 78.4655 81.0903C78.2535 80.8777 77.9657 80.758 77.6655 80.7576H54.6969Z" fill="#8D50F0"/>
<path d="M77.2199 36.0872C76.9354 36.1102 76.67 36.2394 76.4764 36.4492C76.2829 36.659 76.1754 36.9341 76.1754 37.2195C76.1754 37.505 76.2829 37.7801 76.4764 37.9899C76.67 38.1997 76.9354 38.3289 77.2199 38.3519H126.525C126.809 38.3289 127.075 38.1997 127.268 37.9899C127.462 37.7801 127.569 37.505 127.569 37.2195C127.569 36.9341 127.462 36.659 127.268 36.4492C127.075 36.2394 126.809 36.1102 126.525 36.0872H77.2199Z" fill="#E6E6E6"/>
<path d="M77.5443 42.871C76.7873 42.871 76.1735 43.3781 76.1735 44.0033C76.1735 44.6286 76.7873 45.1357 77.5443 45.1357H142.174C142.932 45.1357 143.545 44.6286 143.545 44.0033C143.545 43.3781 142.932 42.871 142.174 42.871H77.5443Z" fill="#E6E6E6"/>
</svg>
