<svg width="449" height="239" viewBox="0 0 449 239" fill="none" xmlns="http://www.w3.org/2000/svg">
<g clip-path="url(#clip0)">
<path opacity="0.1" d="M414.574 188.989C414.074 190.067 413.575 191.131 413.078 192.181C412.302 193.811 411.536 195.41 410.78 196.977C410.444 197.671 410.107 198.352 409.78 199.034C406.071 206.611 402.609 213.313 399.668 218.825C397 223.819 393.038 228.004 388.197 230.94C383.357 233.876 377.816 235.457 372.154 235.515L306.766 236.227H306.076L300.47 236.287L295.675 236.339L280.972 236.499H280.377L272.892 236.581H272.663L226.527 237.081L185.344 237.512L180.554 237.564L150.802 237.887H150.768L131.472 238.094H131.265L70.2527 238.754L52.0007 238.953C48.1057 238.997 44.2271 238.441 40.5011 237.305C34.017 235.346 28.1897 231.656 23.6461 226.631C15.8072 217.993 10.094 207.914 6.25647 196.977C5.70168 195.398 5.18426 193.799 4.70421 192.181C-8.58055 147.263 7.61471 89.3129 36.7627 50.5326C37.9844 48.911 39.2262 47.3296 40.4881 45.7885L40.5183 45.754C49.4826 34.7479 59.5335 25.5531 70.2398 19.0149C89.2119 7.40932 110.232 4.14025 130.907 13.8828C148.4 22.1288 164.734 26.0059 180.567 27.0582C182.166 27.1617 183.766 27.2394 185.357 27.2868C221.676 28.4297 255.713 15.3405 295.684 6.89179C297.275 6.55539 298.871 6.22331 300.479 5.90848C328.993 0.232893 360.625 -2.76016 398.241 3.53215C402.149 4.17073 406.005 5.09322 409.78 6.29232C411.438 6.8271 413.036 7.40213 414.574 8.01742C432.529 15.3232 442.321 28.8221 446.482 45.7368C446.876 47.3066 447.216 48.9038 447.504 50.5283C454.881 91.2148 433.275 148.928 414.574 188.989Z" fill="#8D50F0"/>
<g opacity="0.1">
<path opacity="0.1" d="M70.2398 19.0149V238.802L51.9878 239C48.0928 239.044 44.2142 238.488 40.4882 237.353V45.754H40.5183C49.4826 34.7349 59.5335 25.5401 70.2398 19.0149Z" fill="#8D50F0"/>
<path opacity="0.1" d="M447.525 50.5326H36.7627C37.9844 48.911 39.2262 47.3296 40.4881 45.7885V45.754H446.503C446.897 47.3152 447.238 48.9081 447.525 50.5326Z" fill="#8D50F0"/>
<path opacity="0.1" d="M414.574 8.02172V192.176H413.078C412.302 193.807 411.536 195.405 410.78 196.972C410.444 197.667 410.107 198.348 409.78 199.029V6.27937C411.438 6.81415 413.036 7.39494 414.574 8.02172Z" fill="#8D50F0"/>
<path opacity="0.1" d="M300.479 5.89554V236.305L295.684 236.356V6.87885C297.275 6.54245 298.871 6.21037 300.479 5.89554Z" fill="#8D50F0"/>
<path opacity="0.1" d="M185.357 27.2739V237.555L180.567 237.607V27.0453C182.166 27.1488 183.766 27.2092 185.357 27.2739Z" fill="#8D50F0"/>
<path opacity="0.1" d="M413.078 192.181C412.302 193.811 411.536 195.41 410.78 196.976H6.25648C5.70169 195.398 5.18427 193.799 4.70422 192.181H413.078Z" fill="#8D50F0"/>
</g>
<path d="M99.4309 114.646H91.2384V139.513H99.4309V114.646Z" fill="#3F3D56"/>
<path d="M319.908 113.352H311.715V139.66H319.908V113.352Z" fill="#3F3D56"/>
<path d="M372.154 230.15V235.757L306.649 236.361L305.951 236.374L281.054 236.602L280.459 236.611L272.892 236.675H272.668L226.539 237.102L150.819 237.805H150.755L131.502 237.987L131.295 237.991L45.7485 238.776V232.307L65.8632 220.231L106.222 219.895L107.084 219.89L107.369 219.886L108.231 219.873L127.609 219.713L128.475 219.709L128.751 219.705L129.614 219.7L135.827 219.649L135.991 219.644L151.32 219.515H151.445L271.055 218.506L273.983 218.484H274.276L276.509 218.463L292.743 218.329L293.606 218.316L294.403 218.307H294.817L299.867 218.269L300.867 218.256L302.208 218.247L306.412 218.208L313.082 218.152L313.945 218.144L315.445 218.135H315.725L347.939 217.859L372.154 230.15Z" fill="#65617D"/>
<path opacity="0.2" d="M372.154 230.15V235.757L306.649 236.361L305.951 236.374L281.054 236.602L280.459 236.611L272.892 236.675H272.668L226.539 237.102L150.819 237.805H150.755L131.502 237.987L131.295 237.991L45.7485 238.776V232.307L65.8632 220.231L106.222 219.895L107.084 219.89L107.369 219.886L108.231 219.873L127.609 219.713L128.475 219.709L128.751 219.705L129.614 219.7L135.827 219.649L135.991 219.644L151.32 219.515H151.445L271.055 218.506L273.983 218.484H274.276L276.509 218.463L292.743 218.329L293.606 218.316L294.403 218.307H294.817L299.867 218.269L300.867 218.256L302.208 218.247L306.412 218.208L313.082 218.152L313.945 218.144L315.445 218.135H315.725L347.939 217.859L372.154 230.15Z" fill="black"/>
<path d="M127.673 208.591V219.153C127.674 219.653 127.532 220.143 127.265 220.566C126.998 220.989 126.616 221.327 126.164 221.542C125.828 221.705 125.46 221.793 125.086 221.801L110.038 222.12C109.636 222.13 109.238 222.045 108.874 221.874C108.414 221.663 108.025 221.325 107.752 220.899C107.479 220.473 107.334 219.978 107.334 219.472V208.591H127.673Z" fill="#3F3D56"/>
<path opacity="0.1" d="M127.673 208.591V219.153C127.674 219.653 127.532 220.143 127.265 220.566C126.998 220.989 126.616 221.327 126.164 221.542C125.828 221.705 125.46 221.793 125.086 221.801L110.038 222.12C109.636 222.13 109.238 222.045 108.874 221.874C108.414 221.663 108.025 221.325 107.752 220.899C107.479 220.473 107.334 219.978 107.334 219.472V208.591H127.673Z" fill="black"/>
<path d="M128.536 208.591V219.153C128.536 219.653 128.394 220.143 128.127 220.566C127.86 220.989 127.478 221.327 127.027 221.542C126.69 221.705 126.323 221.793 125.949 221.801L110.9 222.12C110.499 222.13 110.1 222.045 109.736 221.874C109.276 221.663 108.887 221.325 108.614 220.899C108.341 220.473 108.196 219.978 108.197 219.472V208.591H128.536Z" fill="#3F3D56"/>
<path d="M313.945 208.591H293.606V222.176H313.945V208.591Z" fill="#3F3D56"/>
<path opacity="0.1" d="M313.945 208.591H293.606V222.176H313.945V208.591Z" fill="black"/>
<path d="M313.082 208.591H292.743V222.176H313.082V208.591Z" fill="#3F3D56"/>
<path opacity="0.1" d="M99.4309 114.642V117.113L91.2384 116.902V114.642H99.4309Z" fill="black"/>
<path d="M153.355 45.0252L143.511 115.754C143.448 116.206 143.222 116.619 142.874 116.914C142.527 117.209 142.082 117.366 141.627 117.354L62.8062 115.31L61.31 115.271C61.0495 115.265 60.7932 115.204 60.5579 115.092C60.3226 114.98 60.1134 114.82 59.9442 114.622C59.7749 114.424 59.6494 114.192 59.5756 113.942C59.5019 113.692 59.4817 113.429 59.5163 113.171L70.5675 39.1296C70.6388 38.671 70.8794 38.2558 71.2418 37.9659C71.6042 37.6761 72.0621 37.5327 72.5251 37.5641L151.63 42.9206C151.885 42.9353 152.135 43.0029 152.362 43.1189C152.59 43.235 152.792 43.397 152.954 43.5947C153.116 43.7925 153.235 44.0217 153.304 44.2679C153.373 44.5141 153.39 44.772 153.355 45.0252Z" fill="#65617D"/>
<path d="M75.8581 42.7653L67.5233 108.03L139.962 110.329L148.87 47.3627L75.8581 42.7653Z" fill="#8D50F0"/>
<path d="M251.785 41.7561H168.131C166.862 41.7561 165.833 42.7853 165.833 44.0548V114.21C165.833 115.48 166.862 116.509 168.131 116.509H251.785C253.055 116.509 254.084 115.48 254.084 114.21V44.0548C254.084 42.7853 253.055 41.7561 251.785 41.7561Z" fill="#65617D"/>
<path d="M250.199 46.7891H169.998V109.035H250.199V46.7891Z" fill="#8D50F0"/>
<path opacity="0.1" d="M319.908 113.348V114.982L311.715 115.151V113.348H319.908Z" fill="black"/>
<path d="M356.873 111.968C356.885 112.146 356.861 112.326 356.801 112.495C356.742 112.664 356.649 112.819 356.528 112.951C356.407 113.083 356.261 113.189 356.098 113.264C355.935 113.338 355.759 113.378 355.58 113.382L274.862 115.051C274.527 115.058 274.201 114.938 273.951 114.715C273.701 114.492 273.544 114.182 273.513 113.848L266.575 41.7044C266.558 41.5254 266.577 41.3448 266.632 41.1735C266.687 41.0022 266.775 40.8438 266.893 40.7079C267.011 40.5721 267.155 40.4615 267.317 40.3829C267.478 40.3044 267.654 40.2595 267.834 40.251L347.939 36.266L348.802 36.2228C349.144 36.2048 349.481 36.3206 349.74 36.5459C349.999 36.7712 350.16 37.0884 350.19 37.4304L356.873 111.968Z" fill="#65617D"/>
<path d="M271.184 44.4904L344.343 40.8936L350.522 106.447L277.941 108.173L271.184 44.4904Z" fill="#8D50F0"/>
<path opacity="0.1" d="M356.873 111.968C356.885 112.146 356.86 112.326 356.801 112.495C356.742 112.664 356.649 112.819 356.528 112.951C356.407 113.083 356.261 113.189 356.098 113.264C355.935 113.338 355.759 113.378 355.58 113.382L347.939 36.266L348.802 36.2228C349.144 36.2048 349.481 36.3206 349.74 36.5459C349.999 36.7712 350.16 37.0884 350.19 37.4304L356.873 111.968Z" fill="black"/>
<path opacity="0.1" d="M72.5381 37.5598L62.8062 115.31L61.31 115.271C61.0495 115.265 60.7932 115.204 60.5579 115.092C60.3226 114.98 60.1134 114.82 59.9442 114.622C59.7749 114.424 59.6494 114.192 59.5756 113.942C59.5019 113.692 59.4817 113.429 59.5163 113.171L70.5675 39.1296C70.6379 38.6678 70.88 38.2496 71.2453 37.9586C71.6106 37.6675 72.0723 37.5251 72.5381 37.5598Z" fill="black"/>
<path opacity="0.1" d="M99.4309 132.147H91.2384V139.513H99.4309V132.147Z" fill="black"/>
<path opacity="0.1" d="M128.536 208.586V210.73L108.197 211.273V208.586H128.536Z" fill="black"/>
<path d="M164.432 134.713V207.254C164.427 207.697 164.251 208.12 163.942 208.438C163.633 208.755 163.214 208.941 162.772 208.957L80.1355 211.157H80.1139C79.664 211.151 79.234 210.97 78.9158 210.652C78.5976 210.333 78.4164 209.903 78.4108 209.453V134.713C78.4164 134.263 78.5976 133.833 78.9158 133.515C79.234 133.197 79.664 133.015 80.1139 133.01H162.729C163.179 133.015 163.609 133.197 163.927 133.515C164.245 133.833 164.426 134.263 164.432 134.713Z" fill="#65617D"/>
<path opacity="0.1" d="M80.1355 133.01V211.157H80.114C79.664 211.151 79.234 210.97 78.9158 210.652C78.5976 210.333 78.4164 209.903 78.4108 209.453V134.713C78.4164 134.263 78.5976 133.833 78.9158 133.515C79.234 133.197 79.664 133.015 80.114 133.01H80.1355Z" fill="black"/>
<path d="M83.9083 137.642H160.443V201.578L83.9083 203.303V137.642Z" fill="#D4DFEC"/>
<path opacity="0.1" d="M319.908 132.147H311.715V139.66H319.908V132.147Z" fill="black"/>
<path opacity="0.1" d="M313.082 208.586V211.351L292.743 210.808V208.586H313.082Z" fill="black"/>
<path d="M339.923 134.713V209.453C339.918 209.907 339.734 210.34 339.411 210.659C339.088 210.978 338.652 211.157 338.199 211.157L255.545 208.957C255.103 208.941 254.684 208.755 254.375 208.438C254.066 208.12 253.89 207.697 253.885 207.254V134.713C253.891 134.263 254.072 133.833 254.39 133.515C254.708 133.197 255.138 133.015 255.588 133.01H338.203C338.656 133.011 339.09 133.19 339.412 133.509C339.734 133.828 339.918 134.26 339.923 134.713Z" fill="#65617D"/>
<path opacity="0.1" d="M339.923 134.713V209.453C339.918 209.907 339.734 210.34 339.411 210.659C339.088 210.978 338.652 211.157 338.199 211.157V133.01C338.652 133.01 339.088 133.188 339.411 133.507C339.734 133.826 339.918 134.259 339.923 134.713Z" fill="black"/>
<path d="M334.426 137.642H257.891V201.578L334.426 203.303V137.642Z" fill="#D4DFEC"/>
<path d="M251.746 134.713V207.254C251.741 207.697 251.566 208.12 251.257 208.438C250.948 208.755 250.529 208.941 250.086 208.957L167.45 211.157C166.996 211.157 166.561 210.978 166.238 210.659C165.915 210.34 165.731 209.907 165.725 209.453V134.713C165.731 134.263 165.912 133.833 166.23 133.515C166.549 133.197 166.979 133.015 167.429 133.01H250.043C250.493 133.015 250.923 133.197 251.241 133.515C251.56 133.833 251.741 134.263 251.746 134.713Z" fill="#65617D"/>
<path d="M171.223 137.642H247.758V201.578L171.223 203.303V137.642Z" fill="#D4DFEC"/>
<path opacity="0.1" d="M372.154 230.15V235.757L306.649 236.361L305.951 236.374L281.054 236.602L280.459 236.611L272.892 236.675H272.668L226.539 237.102L150.819 237.805H150.755L131.502 237.987L131.295 237.991L45.7485 238.776V232.307L133.068 231.733H133.274L150.949 231.612H151.031L273.09 230.806H273.215L273.288 230.801H273.491L275.556 230.789H276.186L308.305 230.573L310.202 230.564L310.625 230.56L372.154 230.15Z" fill="black"/>
<path d="M210.098 139.513C222.322 139.513 232.231 129.602 232.231 117.376C232.231 105.15 222.322 95.2386 210.098 95.2386C197.875 95.2386 187.966 105.15 187.966 117.376C187.966 129.602 197.875 139.513 210.098 139.513Z" fill="#FBBEBE"/>
<path d="M232.235 162.66C232.235 162.66 189.333 167.835 193.429 162.66C194.912 160.788 195.322 155.242 195.24 148.924C195.214 147.005 195.145 145.016 195.046 143.037C194.572 133.549 193.429 124.276 193.429 124.276C193.429 124.276 230.942 106.594 226.63 120.611C224.905 126.273 225.47 134.226 226.781 141.691C227.165 143.869 227.609 146.004 228.074 148.031C229.211 152.975 230.6 157.858 232.235 162.66Z" fill="#FBBEBE"/>
<path opacity="0.1" d="M232.235 162.66C232.235 162.66 189.333 167.835 193.429 162.66C194.912 160.788 195.322 155.242 195.24 148.924C201.781 146.129 210.103 148.212 210.103 148.212C218.864 146.466 224.483 146.806 228.074 148.031C229.211 152.975 230.6 157.858 232.235 162.66Z" fill="black"/>
<path d="M150.802 238.293V237.93L226.527 237.107L272.663 236.675H272.793L272.745 237.314L272.81 236.675H272.892V236.602L273.482 230.802L273.707 228.606L273.776 227.921L273.836 227.347L276.501 218.458L279.166 209.583L281.408 202.109L284.831 190.689C284.831 190.689 282.891 186.16 281.813 184.866C280.735 183.573 279.657 174.731 279.657 174.731C279.657 174.731 270.456 165.964 266.433 164.954C264.747 164.523 261.418 163.949 257.882 163.229C256.559 162.962 255.2 162.677 253.894 162.367C253.157 162.198 252.432 162.022 251.738 161.845C250.387 161.507 249.055 161.096 247.749 160.611C247.065 160.363 246.413 160.031 245.809 159.624C242.64 157.299 234.698 157.036 234.391 157.036C234.391 157.026 234.391 157.016 234.391 157.006V156.967C234.403 156.786 234.403 156.605 234.391 156.424C234.391 156.251 234.391 156.049 234.353 155.82C234.353 155.751 234.353 155.678 234.322 155.604C234.301 155.449 234.275 155.285 234.236 155.113C234.223 155.036 234.206 154.959 234.184 154.884C234.059 154.364 233.879 153.86 233.645 153.379C233.615 153.31 233.576 153.237 233.542 153.168C233.331 152.769 233.085 152.39 232.809 152.033C232.753 151.96 232.693 151.882 232.628 151.809C232.275 151.392 231.882 151.011 231.455 150.67C231.339 150.58 231.218 150.485 231.093 150.399C231.023 150.342 230.95 150.29 230.873 150.244L230.489 149.993L230.131 149.786C229.817 149.614 229.485 149.446 229.122 149.286C229.01 149.234 228.89 149.187 228.769 149.139C228.648 149.092 228.458 149.019 228.299 148.958H228.273L227.95 148.829C227.704 148.747 227.454 148.674 227.191 148.6L226.79 148.497L226.358 148.398L225.927 148.307C225.496 148.221 225.035 148.143 224.552 148.083L224.06 148.022L223.556 147.971L223.034 147.928L222.292 147.884L221.43 147.854C217.627 147.854 213.834 148.257 210.116 149.058C207.533 148.483 204.887 148.239 202.242 148.333H201.867L201.436 148.359H201.16L200.604 148.411C200.418 148.411 200.229 148.449 200.043 148.475C199.858 148.501 199.664 148.523 199.478 148.553L199.194 148.6C198.914 148.648 198.629 148.7 198.332 148.76C198.237 148.777 198.142 148.799 198.047 148.825C197.672 148.907 197.297 149.006 196.926 149.118C196.74 149.17 196.555 149.23 196.37 149.295C196.275 149.321 196.184 149.355 196.094 149.39L195.818 149.489L195.546 149.597L195.223 149.726C195.059 149.795 194.899 149.868 194.74 149.946C194.649 149.985 194.559 150.028 194.472 150.075C194.386 150.123 194.296 150.162 194.214 150.209C193.239 150.713 192.338 151.349 191.536 152.098L191.316 152.309L191.101 152.529C191.027 152.603 190.958 152.68 190.889 152.758C190.608 153.065 190.346 153.389 190.105 153.728C190.036 153.819 189.971 153.909 189.906 154.004C189.633 154.408 189.385 154.828 189.165 155.264C189.109 155.367 189.057 155.475 189.005 155.578C188.653 156.307 188.365 157.065 188.143 157.843C188.062 158.13 187.989 158.418 187.923 158.705C187.923 158.705 178.795 162.733 171.223 165.649C169.209 166.425 167.312 167.128 165.725 167.658C165.264 167.814 164.833 167.956 164.432 168.09C163.562 168.404 162.657 168.613 161.737 168.711C161.303 168.718 160.871 168.758 160.443 168.832C156.964 169.396 151.001 171.85 150.349 174.313C150.297 174.51 150.282 174.715 150.306 174.917C150.306 174.917 150.306 174.947 150.306 174.964C150.738 177.983 147.719 177.552 147.719 177.552C147.719 177.552 146.641 185.53 145.132 187.687C144.041 189.239 143.295 192.703 143.2 195.316C143.146 196.13 143.21 196.948 143.39 197.744C143.39 197.766 143.39 197.787 143.39 197.805C143.563 198.383 143.149 199.961 142.446 201.984C141.683 204.205 140.57 206.965 139.501 209.57C137.888 213.503 136.37 217.074 136.276 217.859C136.237 218.208 136.125 218.834 135.969 219.64C135.34 222.926 133.943 229.184 133.253 231.716C132.74 233.605 131.994 236.192 131.481 237.969C131.481 238.021 131.451 238.073 131.438 238.12L150.768 237.93V238.293H150.828H150.802Z" fill="#8D50F0"/>
<path opacity="0.1" d="M157.856 187.458C157.856 187.458 182.434 200.181 191.273 198.671L157.856 187.458Z" fill="black"/>
<path opacity="0.1" d="M207.874 182.283C207.874 182.283 231.804 190.046 239.781 191.124C247.758 192.202 207.874 182.283 207.874 182.283Z" fill="black"/>
<path opacity="0.1" d="M234.417 157.303C221.913 159.606 198.37 159.11 188.194 158.761C191.924 145.392 210.111 149.937 210.111 149.937C232.623 145.443 234.348 154.768 234.417 157.303Z" fill="black"/>
<path d="M234.417 156.441C221.913 158.744 198.37 158.248 188.194 157.899C191.924 144.529 210.111 149.075 210.111 149.075C232.623 144.581 234.348 153.905 234.417 156.441Z" fill="#8D50F0"/>
<path d="M300.794 215.383C300.794 215.383 315.523 213.119 315.812 219.588C316.101 226.057 308.301 230.577 308.301 230.577L300.794 215.383Z" fill="#FBBEBE"/>
<path opacity="0.1" d="M226.781 141.691C226.147 141.974 225.5 142.225 224.841 142.442C220.193 144.046 215.506 145.663 210.612 146.25C205.718 146.836 200.582 146.319 196.314 143.878C195.865 143.625 195.433 143.344 195.02 143.037C194.546 133.549 193.403 124.276 193.403 124.276C193.403 124.276 230.916 106.594 226.604 120.611C224.888 126.273 225.47 134.226 226.781 141.691Z" fill="black"/>
<path d="M204.027 82.7747C203.412 82.9373 202.767 82.9537 202.144 82.8227C201.521 82.6916 200.938 82.4168 200.44 82.02L201.337 83.2664C200.808 83.3274 200.273 83.2721 199.768 83.1045C199.263 82.9369 198.801 82.661 198.413 82.296C198.332 83.4118 198.378 84.5332 198.551 85.6384C197.067 85.71 195.606 85.2514 194.429 84.3446C194.406 84.7336 194.503 85.1204 194.707 85.4528C194.91 85.7851 195.211 86.0471 195.568 86.2034C194.077 86.0252 192.572 86.3957 191.335 87.2456C190.097 88.0955 189.211 89.3669 188.841 90.8223L191.092 91.0293C189.323 91.4072 187.735 92.3761 186.59 93.7766C185.901 94.6391 185.374 95.7432 185.676 96.7955C185.978 97.8478 187.436 98.5206 188.229 97.7702C187.1 99.1174 186.28 100.695 185.826 102.393C185.371 104.091 185.294 105.868 185.599 107.599C185.803 108.337 185.871 109.106 185.797 109.867C185.655 110.579 185.206 111.196 184.982 111.89C184.551 113.149 184.961 114.517 185.344 115.772L187.367 122.422C188.1 124.824 188.828 127.231 189.785 129.555C190.463 131.025 191.04 132.539 191.51 134.088C192.053 136.175 192.075 138.461 193.235 140.285C194.03 141.433 195.092 142.37 196.331 143.015C200.595 145.456 205.748 145.974 210.629 145.387C215.51 144.801 220.193 143.183 224.836 141.579C225.868 141.268 226.858 140.834 227.786 140.285C230.998 138.181 231.714 133.877 232.313 130.086C232.981 125.859 233.874 121.641 235.456 117.665C236.396 115.297 237.612 112.895 237.405 110.359C237.142 106.991 234.478 104.261 233.818 100.949C233.597 99.8415 233.607 98.7007 233.848 97.5977C234.053 96.9405 234.167 96.2586 234.189 95.5707C234.115 94.182 232.977 93.1124 231.908 92.2197C229.588 90.2818 227.194 88.4503 224.724 86.7252C224.599 85.8627 225.772 85.4918 226.302 84.8103C227.053 83.8486 226.277 82.3219 225.138 81.8734C224 81.4248 222.724 81.7181 221.538 82.0157C221.615 81.4086 221.494 80.7928 221.194 80.2599C220.893 79.7269 220.428 79.3053 219.869 79.0577C219.309 78.8101 218.685 78.7498 218.088 78.8856C217.492 79.0215 216.955 79.3464 216.558 79.8119C216.243 79.0896 215.74 78.4653 215.101 78.004C214.462 77.5427 213.712 77.2615 212.927 77.1897C210.068 76.9654 210.012 79.152 208.184 80.3553C206.356 81.5585 204.847 79.9714 203.441 78.8156C203.183 79.469 203.101 80.1788 203.204 80.8738C203.307 81.5687 203.591 82.2243 204.027 82.7747Z" fill="#3F3D56"/>
<path d="M311.715 228.322C311.715 228.322 311.332 229.236 310.625 230.56C309.555 232.597 308.253 234.503 306.744 236.24L306.628 236.365H305.929L281.032 236.593H280.437L280.364 236.507L275.535 230.776L273.715 228.615L273.642 228.524L273.487 228.343L273.401 228.24L273.288 228.106L269.748 223.905L271.042 218.514L273.245 209.432L273.301 209.212L273.733 207.487L274.039 206.193L275.065 201.975L278.583 187.463L284.836 190.697L291.428 202.342L294.968 208.595H296.909C297.275 208.595 298.116 209.302 298.961 210.117C299.263 210.406 299.565 210.713 299.823 210.98C300.591 211.774 301.199 212.455 301.199 212.455C301.199 212.455 304.342 212.524 305.187 215C305.231 215.119 305.267 215.242 305.295 215.366C305.576 216.339 305.941 217.286 306.386 218.195C306.942 219.407 307.641 220.783 308.348 222.159C309.663 224.682 311 227.084 311.491 227.955L311.552 228.063L311.715 228.322Z" fill="#8D50F0"/>
<path opacity="0.1" d="M274.677 208.85L274.634 209.466V209.509L274.56 210.501L273.987 218.484L273.293 228.102L273.094 230.81L272.663 236.606V236.68L226.527 237.111L150.815 237.93V238.293H150.755V237.93V237.81L150.949 231.617L151.319 219.515L151.639 209.255L151.669 208.233C151.688 207.616 151.832 207.009 152.093 206.45C152.354 205.891 152.727 205.391 153.187 204.98C153.648 204.57 154.188 204.258 154.773 204.063C155.359 203.868 155.978 203.794 156.593 203.847C158.628 204.019 161.271 204.231 164.432 204.455L165.725 204.55C183.977 205.818 217.709 207.457 251.746 205.412C252.462 205.373 253.182 205.33 253.902 205.279C259.18 204.947 264.453 204.52 269.675 203.985C270.335 203.916 271.002 203.992 271.63 204.209C272.257 204.425 272.829 204.777 273.306 205.239C273.783 205.7 274.153 206.261 274.39 206.881C274.627 207.501 274.725 208.166 274.677 208.828V208.85Z" fill="black"/>
<path d="M150.802 238.293V237.93L226.527 237.107L272.663 236.675H272.793V236.602L273.224 230.806L273.409 228.218L274.116 218.467L274.672 210.747V210.557C274.698 210.202 274.682 209.844 274.625 209.492C274.627 209.478 274.627 209.463 274.625 209.449C274.507 208.721 274.21 208.034 273.763 207.448C273.288 206.839 272.666 206.361 271.955 206.059C271.245 205.757 270.469 205.642 269.701 205.723C264.479 206.258 259.206 206.685 253.928 207.017C253.208 207.068 252.488 207.111 251.772 207.15C217.735 209.173 184.003 207.534 165.751 206.288L164.458 206.193C161.297 205.969 158.654 205.762 156.619 205.585C155.499 205.49 154.384 205.814 153.489 206.493C152.594 207.173 151.983 208.16 151.772 209.264C151.729 209.497 151.703 209.733 151.695 209.971L151.401 219.528L151 231.634L150.811 237.827V237.948V238.31L150.802 238.293Z" fill="#3F3D56"/>
<path opacity="0.1" d="M274.806 211.873L274.276 218.484L273.487 228.339L273.288 230.806L272.857 236.33L272.831 236.606V236.68L272.767 237.318L272.814 236.68H272.689L226.552 237.111L150.815 237.93V237.81L151.026 231.617L151.458 219.515L151.733 211.472C151.747 211.014 151.875 210.567 152.105 210.172C152.336 209.776 152.662 209.445 153.053 209.207C153.541 208.908 154.112 208.772 154.683 208.819C155.588 208.893 156.701 208.979 157.999 209.074C160.107 209.229 162.707 209.41 165.734 209.6C171.339 209.954 178.372 210.333 186.431 210.644C208.852 211.506 239.121 211.795 267.873 209.276C269.166 209.164 270.503 209.039 271.809 208.914C272.327 208.863 272.848 208.961 273.31 209.199C273.441 209.264 273.565 209.342 273.681 209.432C274.056 209.704 274.354 210.07 274.543 210.493C274.587 210.577 274.623 210.665 274.651 210.756C274.781 211.113 274.833 211.494 274.806 211.873Z" fill="black"/>
<path opacity="0.1" d="M128.536 217.777V219.153C128.536 219.653 128.394 220.143 128.127 220.566C127.86 220.989 127.478 221.327 127.027 221.542L109.736 221.874C109.276 221.663 108.887 221.325 108.614 220.899C108.341 220.473 108.196 219.978 108.197 219.472V218.178L128.536 217.777Z" fill="black"/>
<path d="M128.751 222.353L106.222 222.784V219.045L128.751 218.614V222.353Z" fill="#3F3D56"/>
<path opacity="0.1" d="M128.751 222.353L106.222 222.784V219.045L128.751 218.614V222.353Z" fill="black"/>
<path d="M129.614 222.353L107.084 222.784V219.045L129.614 218.614V222.353Z" fill="#3F3D56"/>
<g opacity="0.1">
<path opacity="0.1" d="M204.204 81.3601C203.783 80.8127 203.503 80.1698 203.389 79.4884C203.285 80.1545 203.348 80.836 203.57 81.4723C203.784 81.4525 203.996 81.415 204.204 81.3601Z" fill="black"/>
<path opacity="0.1" d="M198.728 84.2238C198.647 83.6951 198.594 83.1624 198.569 82.6281C198.569 83.1586 198.569 83.6933 198.569 84.2281L198.728 84.2238Z" fill="black"/>
<path opacity="0.1" d="M233.87 98.6155C233.893 98.2312 233.945 97.8493 234.025 97.4726C234.229 96.8166 234.345 96.1364 234.37 95.4499C234.36 95.2958 234.337 95.1429 234.301 94.9928C234.227 95.3895 234.111 95.7863 234.025 96.1788C233.853 96.9788 233.8 97.8 233.87 98.6155Z" fill="black"/>
<path opacity="0.1" d="M224.901 85.289L225.371 85.6297C225.767 85.3431 226.138 85.0228 226.479 84.6723C226.642 84.4479 226.742 84.1848 226.771 83.9093C226.8 83.6338 226.755 83.3556 226.643 83.1025C226.6 83.2009 226.545 83.2936 226.479 83.3785C225.949 84.0599 224.776 84.4351 224.901 85.289Z" fill="black"/>
<path opacity="0.1" d="M189.471 89.4379C189.313 89.7525 189.188 90.0819 189.096 90.4212C189.77 90.0446 190.497 89.77 191.251 89.6061L189.471 89.4379Z" fill="black"/>
<path opacity="0.1" d="M195.417 84.7457C195.134 84.5896 194.863 84.4123 194.606 84.2152C194.595 84.3858 194.608 84.5571 194.645 84.7241C194.902 84.7118 195.16 84.719 195.417 84.7457Z" fill="black"/>
<path opacity="0.1" d="M237.574 110.156C237.397 112.248 236.422 114.262 235.633 116.246C234.051 120.222 233.158 124.44 232.49 128.671C231.891 132.462 231.196 136.766 227.962 138.866C227.038 139.419 226.049 139.853 225.017 140.16C220.369 141.769 215.682 143.382 210.788 143.968C205.895 144.555 200.759 144.042 196.49 141.601C195.253 140.955 194.19 140.018 193.394 138.871C192.243 137.046 192.222 134.761 191.67 132.673C191.199 131.123 190.623 129.607 189.945 128.136C188.992 125.816 188.259 123.392 187.53 121.007C186.855 118.791 186.181 116.572 185.508 114.353C185.287 113.685 185.122 113 185.017 112.304C184.848 113.408 185.176 114.564 185.508 115.647C186.181 117.869 186.855 120.087 187.53 122.301C188.259 124.703 188.992 127.11 189.945 129.43C190.623 130.901 191.199 132.417 191.67 133.967C192.213 136.055 192.235 138.34 193.394 140.165C194.19 141.312 195.253 142.249 196.49 142.895C200.759 145.336 205.907 145.849 210.788 145.262C215.669 144.676 220.352 143.063 225.017 141.454C226.049 141.147 227.038 140.712 227.962 140.16C231.175 138.06 231.891 133.756 232.49 129.965C233.158 125.734 234.051 121.516 235.633 117.54C236.573 115.176 237.789 112.774 237.582 110.234C237.582 110.208 237.574 110.182 237.574 110.156Z" fill="black"/>
<path opacity="0.1" d="M185.965 108.487C185.965 108.487 185.965 108.457 185.965 108.44C186.043 107.679 185.976 106.911 185.767 106.176C185.681 105.702 185.625 105.224 185.599 104.744C185.549 105.656 185.606 106.571 185.767 107.47C185.836 107.806 185.914 108.147 185.965 108.487Z" fill="black"/>
<path opacity="0.1" d="M187.28 97.9384C187.612 97.3811 187.988 96.8518 188.406 96.3556C187.617 97.1103 186.159 96.4375 185.853 95.3895C185.74 95.8134 185.74 96.2595 185.853 96.6834C185.959 96.9998 186.147 97.2826 186.398 97.503C186.648 97.7234 186.953 97.8736 187.28 97.9384Z" fill="black"/>
</g>
<path opacity="0.1" d="M294.973 208.591C294.973 208.591 296.339 213.55 294.973 217.863C293.606 222.176 294.973 208.591 294.973 208.591Z" fill="black"/>
<path opacity="0.1" d="M300.794 213.65C300.794 213.65 301.367 219.946 300.074 221.063C298.78 222.18 300.794 213.65 300.794 213.65Z" fill="black"/>
<path d="M85.8013 147.867L129.614 147.436" stroke="#8D50F0" stroke-width="2" stroke-miterlimit="10"/>
<path d="M85.8013 153.245L129.614 152.818" stroke="#8D50F0" stroke-width="2" stroke-miterlimit="10"/>
<path d="M85.8013 158.628L129.614 158.196" stroke="#8D50F0" stroke-width="2" stroke-miterlimit="10"/>
</g>
<defs>
<clipPath id="clip0">
<rect width="449" height="239" fill="white"/>
</clipPath>
</defs>
</svg>
