<svg width="227" height="246" viewBox="0 0 227 246" fill="none" xmlns="http://www.w3.org/2000/svg">
<path d="M207.646 83.793L185.666 88.8074L176.379 71.3456L195.174 64.0302L207.646 83.793Z" fill="#2F2E41"/>
<path d="M154.894 106.929L151.851 101.007C151.616 100.55 151.484 100.047 151.463 99.5338C151.442 99.0203 151.533 98.5085 151.73 98.0337C151.927 97.5589 152.225 97.1324 152.604 96.7838C152.982 96.4351 153.433 96.1727 153.923 96.0145C154.417 95.855 154.941 95.8054 155.456 95.8692C155.972 95.9329 156.467 96.1085 156.907 96.3834C157.348 96.6584 157.722 97.0262 158.005 97.4609C158.287 97.8956 158.471 98.3867 158.543 98.8997L159.371 104.815L167.147 117.031V109.748L175.865 110.688L174.645 123.666C174.584 124.317 174.392 124.949 174.082 125.525C173.772 126.101 173.35 126.609 172.84 127.02C172.284 127.467 171.638 127.789 170.945 127.961C170.253 128.134 169.531 128.155 168.83 128.021C168.129 127.887 167.465 127.603 166.885 127.188C166.305 126.773 165.823 126.237 165.472 125.617L154.894 106.929Z" fill="#A0616A"/>
<path d="M220.872 224.623L214.038 225.092L209.561 183.042L183.641 157.671L181.049 225.092H173.273C168.531 183.696 157.157 139.637 171.859 129.011L175.865 122.199L200.136 126.662L201.078 136.059L205.436 146.974L221.852 174.47C222.903 176.23 223.404 178.261 223.292 180.306L220.872 224.623Z" fill="#2F2E41"/>
<path d="M177.654 243.181C176.883 243.181 176.121 243.023 175.415 242.716C174.709 242.409 174.074 241.96 173.55 241.397C173.026 240.835 172.624 240.17 172.369 239.446C172.114 238.721 172.012 237.952 172.069 237.186L173.038 224.153C175.906 221.222 178.568 221.605 181.049 224.857L183.165 236.612C183.31 237.416 183.276 238.241 183.066 239.031C182.856 239.82 182.474 240.554 181.949 241.18C181.423 241.807 180.766 242.31 180.024 242.656C179.282 243.002 178.473 243.181 177.654 243.181Z" fill="white"/>
<path d="M223.388 246C222.881 246 222.38 245.894 221.918 245.688C221.455 245.482 221.041 245.182 220.703 244.806L207.701 230.373C207.334 229.965 207.053 229.487 206.878 228.968C206.702 228.449 206.634 227.9 206.678 227.354C206.722 226.808 206.878 226.276 207.135 225.792C207.392 225.308 207.745 224.881 208.173 224.537L213.331 220.394L220.872 223.683L226.808 241.253C226.991 241.794 227.042 242.371 226.957 242.936C226.872 243.501 226.653 244.037 226.319 244.501C225.985 244.965 225.545 245.343 225.035 245.603C224.525 245.864 223.961 246 223.388 246Z" fill="white"/>
<path d="M189.693 82.6475C194.427 82.6475 198.266 78.821 198.266 74.1008C198.266 69.3806 194.427 65.5541 189.693 65.5541C184.958 65.5541 181.12 69.3806 181.12 74.1008C181.12 78.821 184.958 82.6475 189.693 82.6475Z" fill="#A0616A"/>
<path d="M194.598 110.57H183.759L181.285 89.0754C183.923 85.3681 184.781 81.4951 183.759 77.447H194.598C192.927 81.0825 193.214 84.7222 197.544 88.3706L194.598 110.57Z" fill="#A0616A"/>
<path d="M199.665 127.132C191.173 130.238 183.212 129.278 175.865 123.608C175.688 116.819 174.025 108.396 171.696 99.2423C171.347 97.8698 171.461 96.4208 172.02 95.1192C172.58 93.8177 173.553 92.7361 174.791 92.0416L181.756 88.1357L189.532 106.459L196.601 87.6659L201.302 88.7073C202.412 88.9545 203.413 89.5478 204.162 90.401C204.91 91.2543 205.366 92.3231 205.464 93.4524C206.696 107.391 206.328 119.958 199.665 127.132Z" fill="#E6E6E6"/>
<path d="M176.808 115.386C171.89 115.86 168.358 113.835 165.969 109.748L167.618 102.218C167.618 99.7688 168.401 97.3829 169.853 95.4071C171.306 93.4314 173.352 91.9685 175.695 91.2308L176.572 90.9547L176.808 115.386Z" fill="#E6E6E6"/>
<path d="M212.153 148.979L213.318 154.207C213.451 154.802 213.436 155.421 213.276 156.009C213.115 156.598 212.813 157.139 212.395 157.585C211.978 158.031 211.458 158.369 210.88 158.57C210.303 158.771 209.684 158.829 209.079 158.738C208.568 158.662 208.078 158.482 207.64 158.208C207.201 157.935 206.824 157.575 206.531 157.15C206.239 156.725 206.037 156.245 205.938 155.739C205.839 155.233 205.846 154.712 205.958 154.209L207.23 148.484L203.435 111.862L210.975 108.574L212.153 148.979Z" fill="#A0616A"/>
<path d="M202.256 113.507C207.174 113.981 210.706 111.956 213.096 107.869L211.446 100.339C211.446 97.8894 210.663 95.5036 209.211 93.5278C207.758 91.552 205.712 90.0891 203.369 89.3515L202.492 89.0754L202.256 113.507Z" fill="#E6E6E6"/>
<path d="M194.369 61.3378C194.369 61.3378 199.238 62.2509 200.364 68.305C200.54 69.326 200.572 70.3665 200.459 71.3963C200.347 72.5617 200.51 75.0231 203.048 77.9213C204.704 79.8011 206.247 81.7768 207.669 83.8383L202.582 85.1886L200.308 76.7848C199.206 72.7104 197.508 68.82 195.269 65.2388L195.223 65.164C195.223 65.164 193.533 69.6654 189.004 70.2825L190.4 68.4495C190.4 68.4495 185.106 71.5008 182.106 72.433C181.764 72.5394 181.457 72.737 181.219 73.0043C180.981 73.2717 180.82 73.5987 180.755 73.9503C180.689 74.3018 180.721 74.6644 180.847 74.9991C180.973 75.3338 181.189 75.6279 181.47 75.8497C181.491 75.8664 181.513 75.8831 181.535 75.8998C183.741 77.5705 188.242 81.5569 186.464 85.4133C184.686 89.2696 186.76 89.9727 186.76 89.9727L182.936 88.5224L181.185 87.7752L181.362 89.0653L172.818 89.2438C172.818 89.2438 170.509 89.2298 174.611 83.0857C174.611 83.0857 175.6 80.7819 174.788 79.0218C174.136 77.689 173.811 76.2206 173.841 74.738C174.099 68.5435 176.716 55.9416 194.369 61.3378Z" fill="#2F2E41"/>
<path d="M161.264 83.7941L160.05 83.3885L171.194 50.221C172.041 47.7001 172.382 45.0375 172.197 42.3853C172.012 39.7332 171.305 37.1433 170.116 34.7636C168.927 32.3839 167.279 30.261 165.267 28.5161C163.255 26.7712 160.918 25.4384 158.389 24.594H158.389L158.389 24.5939L87.9042 1.05432C82.7974 -0.651194 77.2202 -0.264375 72.3995 2.12968C67.5788 4.52373 63.9094 8.7289 62.1987 13.8201L62.1987 13.8202L1.05755 195.78C-0.653178 200.871 -0.265168 206.431 2.13622 211.237C4.53761 216.043 8.75567 219.701 13.8625 221.407H13.8625L84.3476 244.946C89.4544 246.652 95.0316 246.265 99.8524 243.871C104.673 241.477 108.342 237.272 110.053 232.181L110.053 232.181L152.117 106.998L153.331 107.403L161.264 83.7941Z" fill="#3F3D56"/>
<path d="M157.488 29.8473L148.287 26.7746C148.363 27.9501 148.147 29.1261 147.66 30.199C147.172 31.2718 146.427 32.2087 145.491 32.927C144.554 33.6453 143.455 34.123 142.29 34.318C141.125 34.513 139.929 34.4194 138.809 34.0453L98.429 20.5598C97.3087 20.1856 96.298 19.5424 95.4857 18.687C94.6735 17.8316 94.0848 16.7902 93.7713 15.6545C93.4579 14.5188 93.4295 13.3237 93.6885 12.1744C93.9475 11.0252 94.4861 9.95709 95.2567 9.06422L86.6633 6.19431C82.8496 4.92066 78.6845 5.20953 75.0845 6.99739C71.4844 8.78524 68.7442 11.9256 67.4666 15.7277L6.41515 197.42C5.1376 201.222 5.42737 205.375 7.2207 208.964C9.01403 212.553 12.164 215.285 15.9777 216.558H15.9778L86.8023 240.211C88.6907 240.842 90.6852 241.096 92.6719 240.958C94.6585 240.82 96.5986 240.293 98.3811 239.408C100.164 238.523 101.754 237.296 103.061 235.798C104.368 234.3 105.366 232.561 105.999 230.678L167.05 48.9853C167.683 47.1027 167.937 45.1144 167.799 43.1337C167.661 41.1531 167.133 39.219 166.245 37.4419C165.357 35.6648 164.127 34.0794 162.624 32.7763C161.121 31.4733 159.376 30.478 157.488 29.8473L157.488 29.8473Z" fill="white"/>
<path d="M139.776 90.8032L64.1922 65.5609C63.8213 65.4365 63.515 65.1706 63.3405 64.8213C63.166 64.4721 63.1375 64.0681 63.2614 63.698L69.5421 45.0062C69.6669 44.6364 69.9337 44.331 70.284 44.1571C70.6343 43.9831 71.0395 43.9547 71.4107 44.0782L146.994 69.3206C147.365 69.4449 147.672 69.7109 147.846 70.0602C148.021 70.4094 148.049 70.8133 147.925 71.1834L141.644 89.8753C141.52 90.2451 141.253 90.5505 140.903 90.7244C140.552 90.8984 140.147 90.9267 139.776 90.8032ZM71.2232 44.6364C71.0004 44.5623 70.7573 44.5793 70.5471 44.6837C70.3369 44.788 70.1769 44.9713 70.102 45.1932L63.8213 63.885C63.7469 64.107 63.764 64.3494 63.8687 64.559C63.9734 64.7685 64.1572 64.9281 64.3798 65.0027L139.963 90.2451C140.186 90.3192 140.429 90.3022 140.639 90.1978C140.85 90.0934 141.01 89.9102 141.085 89.6883L147.365 70.9965C147.44 70.7744 147.423 70.532 147.318 70.3225C147.213 70.1129 147.029 69.9534 146.807 69.8788L71.2232 44.6364Z" fill="#3F3D56"/>
<path d="M114.925 164.76L39.3415 139.518C38.9706 139.394 38.6643 139.128 38.4898 138.779C38.3153 138.429 38.2868 138.025 38.4107 137.655L50.0367 103.056C50.1614 102.686 50.4282 102.38 50.7785 102.206C51.1288 102.033 51.534 102.004 51.9053 102.128L127.489 127.37C127.86 127.494 128.166 127.76 128.341 128.11C128.515 128.459 128.544 128.863 128.42 129.233L116.794 163.832C116.669 164.202 116.402 164.508 116.052 164.682C115.702 164.856 115.296 164.884 114.925 164.76ZM51.7177 102.686C51.495 102.612 51.2518 102.629 51.0417 102.733C50.8315 102.837 50.6714 103.021 50.5966 103.243L38.9706 137.842C38.8962 138.064 38.9133 138.307 39.018 138.516C39.1227 138.726 39.3065 138.885 39.5291 138.96L115.113 164.202C115.335 164.276 115.579 164.259 115.789 164.155C115.999 164.051 116.159 163.867 116.234 163.645L127.86 129.046C127.934 128.824 127.917 128.581 127.812 128.372C127.708 128.162 127.524 128.003 127.301 127.928L51.7177 102.686Z" fill="#3F3D56"/>
<path d="M129.463 119.641L95.8703 108.422C95.4994 108.298 95.1931 108.032 95.0186 107.683C94.8441 107.333 94.8156 106.929 94.9395 106.559L101.22 87.8674C101.345 87.4976 101.612 87.1922 101.962 87.0183C102.312 86.8443 102.718 86.816 103.089 86.9395L136.682 98.1583C137.053 98.2827 137.359 98.5486 137.533 98.8979C137.708 99.2471 137.736 99.6511 137.612 100.021L131.332 118.713C131.207 119.083 130.94 119.388 130.59 119.562C130.24 119.736 129.834 119.764 129.463 119.641ZM102.901 87.4976C102.679 87.4235 102.435 87.4405 102.225 87.5449C102.015 87.6493 101.855 87.8325 101.78 88.0544L95.4994 106.746C95.425 106.968 95.4421 107.211 95.5468 107.42C95.6515 107.63 95.8353 107.789 96.0579 107.864L129.651 119.083C129.873 119.157 130.117 119.14 130.327 119.036C130.537 118.931 130.697 118.748 130.772 118.526L137.053 99.8342C137.127 99.6121 137.11 99.3698 137.005 99.1602C136.9 98.9507 136.717 98.7911 136.494 98.7165L102.901 87.4976Z" fill="#E6E6E6"/>
<path d="M57.7425 195.948L24.1497 184.73C23.7787 184.605 23.4724 184.339 23.2979 183.99C23.1234 183.641 23.095 183.237 23.2189 182.867L34.9386 147.988C35.0634 147.618 35.3302 147.313 35.6805 147.139C36.0308 146.965 36.436 146.937 36.8072 147.06L70.4 158.279C70.7709 158.403 71.0772 158.669 71.2517 159.019C71.4262 159.368 71.4547 159.772 71.3308 160.142L59.611 195.021C59.4863 195.39 59.2195 195.696 58.8692 195.87C58.5189 196.044 58.1137 196.072 57.7425 195.948ZM36.6197 147.618C36.3969 147.544 36.1538 147.561 35.9436 147.666C35.7334 147.77 35.5733 147.953 35.4985 148.175L23.7787 183.054C23.7044 183.276 23.7214 183.518 23.8262 183.728C23.9309 183.937 24.1147 184.097 24.3372 184.171L57.93 195.39C58.1528 195.464 58.3959 195.447 58.6061 195.343C58.8163 195.239 58.9763 195.055 59.0512 194.834L70.7709 159.955C70.8453 159.733 70.8282 159.49 70.7235 159.281C70.6188 159.071 70.435 158.912 70.2124 158.837L36.6197 147.618Z" fill="#E6E6E6"/>
<path d="M99.1733 209.785L65.5805 198.566C65.2096 198.442 64.9033 198.176 64.7288 197.827C64.5543 197.477 64.5258 197.073 64.6497 196.703L76.3695 161.825C76.4942 161.455 76.761 161.149 77.1113 160.975C77.4616 160.802 77.8668 160.773 78.238 160.897L111.831 172.116C112.202 172.24 112.508 172.506 112.683 172.855C112.857 173.204 112.886 173.608 112.762 173.978L101.042 208.857C100.917 209.227 100.65 209.532 100.3 209.706C99.9498 209.88 99.5446 209.908 99.1733 209.785ZM78.0505 161.455C77.8278 161.381 77.5846 161.398 77.3744 161.502C77.1643 161.606 77.0042 161.79 76.9294 162.012L65.2096 196.89C65.1352 197.112 65.1523 197.355 65.257 197.564C65.3617 197.774 65.5455 197.933 65.7681 198.008L99.3609 209.227C99.5836 209.301 99.8268 209.284 100.037 209.18C100.247 209.075 100.407 208.892 100.482 208.67L112.202 173.791C112.276 173.569 112.259 173.327 112.154 173.117C112.05 172.908 111.866 172.748 111.643 172.674L78.0505 161.455Z" fill="#E6E6E6"/>
<path d="M73.4124 118.728C73.2877 118.685 73.1559 118.667 73.0243 118.675C72.8928 118.683 72.7641 118.717 72.6457 118.775C72.5273 118.833 72.4215 118.913 72.3343 119.012C72.2471 119.11 72.1803 119.225 72.1377 119.349C72.0951 119.474 72.0775 119.605 72.0859 119.736C72.0944 119.868 72.1287 119.996 72.1869 120.114C72.2451 120.232 72.326 120.337 72.4251 120.424C72.5242 120.51 72.6395 120.577 72.7643 120.619L72.7757 120.623L117.574 135.584C117.826 135.669 118.101 135.652 118.34 135.535C118.578 135.418 118.76 135.211 118.846 134.961C118.932 134.71 118.914 134.435 118.797 134.197C118.68 133.96 118.473 133.778 118.221 133.692L118.211 133.689L73.4124 118.728Z" fill="#E6E6E6"/>
<path d="M71.5024 124.412C71.3778 124.369 71.2459 124.351 71.1144 124.36C70.9828 124.368 70.8542 124.402 70.7358 124.459C70.6174 124.517 70.5116 124.597 70.4245 124.696C70.3373 124.795 70.2705 124.909 70.2279 125.034C70.1853 125.158 70.1677 125.29 70.1761 125.421C70.1846 125.552 70.2188 125.68 70.277 125.798C70.3352 125.916 70.4162 126.021 70.5152 126.108C70.6143 126.194 70.7295 126.261 70.8543 126.303L70.8657 126.307L90.1426 132.745C90.3942 132.827 90.6682 132.807 90.9048 132.688C91.1414 132.57 91.3215 132.363 91.4056 132.113C91.4897 131.862 91.471 131.589 91.3536 131.352C91.2363 131.116 91.0298 130.935 90.7793 130.85L71.5024 124.412Z" fill="#E6E6E6"/>
<path d="M50.9076 127.641C50.1848 127.4 49.4537 127.628 49.2782 128.151C49.1027 128.673 49.5481 129.295 50.271 129.536L112.079 150.178C112.802 150.419 113.533 150.19 113.708 149.668C113.884 149.146 113.438 148.524 112.716 148.283L50.9076 127.641Z" fill="#E6E6E6"/>
<path d="M48.9976 133.325C48.2747 133.084 47.5437 133.313 47.3682 133.835C47.1927 134.357 47.6381 134.979 48.3609 135.22L110.169 155.862C110.892 156.103 111.623 155.875 111.798 155.352C111.974 154.83 111.528 154.209 110.806 153.967L48.9976 133.325Z" fill="#E6E6E6"/>
<path d="M94.2279 58.6327C93.9761 58.5485 93.7012 58.5673 93.4634 58.685C93.2255 58.8027 93.0443 59.0097 92.9594 59.2606C92.8746 59.5114 92.893 59.7856 93.0107 60.0229C93.1285 60.2601 93.3358 60.4411 93.5873 60.5261L93.5912 60.5274L138.39 75.4886C138.641 75.5709 138.915 75.5507 139.152 75.4323C139.388 75.3139 139.568 75.107 139.653 74.8567C139.737 74.6064 139.718 74.3331 139.601 74.0965C139.483 73.8599 139.277 73.6792 139.026 73.5938L94.2279 58.6327Z" fill="#E6E6E6"/>
<path d="M92.3179 64.3169C92.1932 64.2747 92.0613 64.2575 91.9298 64.2662C91.7984 64.2749 91.67 64.3093 91.5519 64.3676C91.4338 64.4258 91.3284 64.5067 91.2417 64.6055C91.155 64.7044 91.0887 64.8194 91.0466 64.9438C91.0045 65.0682 90.9874 65.1997 90.9963 65.3308C91.0052 65.4618 91.04 65.5898 91.0986 65.7074C91.1572 65.8251 91.2384 65.93 91.3377 66.0163C91.4371 66.1026 91.5525 66.1685 91.6773 66.2103L91.6813 66.2116L110.958 72.6495C111.21 72.7318 111.484 72.7116 111.72 72.5932C111.957 72.4748 112.137 72.2678 112.221 72.0176C112.305 71.7673 112.287 71.494 112.169 71.2574C112.052 71.0208 111.845 70.8401 111.595 70.7547L92.3179 64.3169Z" fill="#E6E6E6"/>
<path d="M88.0013 105.798L56.4884 95.2737L68.2075 84.9444C68.4175 84.7593 68.6727 84.6325 68.9475 84.5769C69.2222 84.5212 69.5068 84.5387 69.7727 84.6275C70.0385 84.7162 70.2762 84.8732 70.4619 85.0826C70.6476 85.292 70.7747 85.5465 70.8305 85.8204L72.1604 92.3489L80.6726 84.8463C80.9356 84.6145 81.2551 84.4558 81.5991 84.3862C81.9431 84.3165 82.2994 84.3383 82.6323 84.4495C82.9651 84.5607 83.2627 84.7572 83.4952 85.0194C83.7277 85.2816 83.8869 85.6001 83.9567 85.9431L88.0013 105.798ZM57.6456 95.0393L87.2192 104.916L83.378 86.0602C83.3288 85.8185 83.2166 85.594 83.0528 85.4093C82.889 85.2245 82.6793 85.086 82.4447 85.0077C82.2102 84.9294 81.9591 84.914 81.7167 84.9631C81.4743 85.0121 81.2491 85.124 81.0638 85.2873L71.7853 93.4652L70.2518 85.9375C70.2166 85.7649 70.1365 85.6045 70.0195 85.4725C69.9025 85.3405 69.7527 85.2416 69.5851 85.1856C69.4176 85.1297 69.2382 85.1187 69.065 85.1538C68.8919 85.1888 68.731 85.2687 68.5987 85.3854L57.6456 95.0393Z" fill="#E6E6E6"/>
<path d="M128.313 119.26L96.7996 108.736L108.519 98.407C108.729 98.2218 108.984 98.0951 109.259 98.0394C109.533 97.9838 109.818 98.0013 110.084 98.09C110.35 98.1788 110.587 98.3358 110.773 98.5452C110.959 98.7546 111.086 99.0091 111.142 99.283L112.472 105.811L120.984 98.3089C121.247 98.0771 121.566 97.9184 121.91 97.8487C122.254 97.7791 122.611 97.8009 122.943 97.9121C123.276 98.0232 123.574 98.2198 123.806 98.4819C124.039 98.7441 124.198 99.0627 124.268 99.4056L128.313 119.26ZM97.9568 108.502L127.53 118.378L123.689 99.5228C123.64 99.2811 123.528 99.0566 123.364 98.8718C123.2 98.6871 122.99 98.5486 122.756 98.4703C122.521 98.3919 122.27 98.3765 122.028 98.4256C121.785 98.4747 121.56 98.5866 121.375 98.7499L112.096 106.928L110.563 99.4001C110.528 99.2275 110.448 99.0671 110.331 98.9351C110.214 98.8031 110.064 98.7041 109.896 98.6482C109.729 98.5922 109.549 98.5812 109.376 98.6163C109.203 98.6514 109.042 98.7313 108.91 98.848L97.9568 108.502Z" fill="#E6E6E6"/>
<path d="M88.0322 105.804L54.4394 94.5856C54.0685 94.4612 53.7622 94.1953 53.5877 93.846C53.4132 93.4968 53.3847 93.0928 53.5086 92.7227L59.7893 74.0309C59.9141 73.6611 60.1809 73.3557 60.5312 73.1818C60.8815 73.0078 61.2867 72.9795 61.6579 73.1029L95.2507 84.3218C95.6217 84.4462 95.928 84.7121 96.1025 85.0614C96.277 85.4106 96.3054 85.8146 96.1815 86.1847L89.9008 104.876C89.7761 105.246 89.5093 105.552 89.159 105.726C88.8087 105.9 88.4035 105.928 88.0322 105.804ZM61.4704 73.6611C61.2476 73.587 61.0045 73.604 60.7943 73.7084C60.5841 73.8127 60.4241 73.996 60.3492 74.2179L54.0685 92.9097C53.9942 93.1318 54.0112 93.3742 54.1159 93.5837C54.2206 93.7932 54.4044 93.9528 54.627 94.0274L88.2198 105.246C88.4425 105.32 88.6856 105.303 88.8958 105.199C89.106 105.095 89.2661 104.911 89.3409 104.689L95.6217 85.9977C95.696 85.7756 95.6789 85.5332 95.5742 85.3237C95.4695 85.1141 95.2857 84.9545 95.0631 84.8799L61.4704 73.6611Z" fill="#E6E6E6"/>
<path d="M41.5483 156.643C41.2969 156.558 41.0219 156.576 40.7838 156.693C40.5456 156.81 40.3638 157.017 40.2782 157.267C40.1925 157.518 40.2101 157.792 40.327 158.03C40.444 158.267 40.6507 158.449 40.9018 158.535L40.9117 158.538L60.1885 164.976C60.3135 165.018 60.4457 165.036 60.5774 165.027C60.7092 165.018 60.8379 164.984 60.9563 164.926C61.0746 164.867 61.1802 164.786 61.267 164.687C61.3538 164.588 61.4201 164.472 61.462 164.347C61.504 164.223 61.5208 164.091 61.5114 163.959C61.5021 163.828 61.4668 163.7 61.4076 163.582C61.3485 163.465 61.2665 163.36 61.1666 163.274C61.0666 163.188 60.9506 163.122 60.8252 163.081L41.5483 156.643Z" fill="#E6E6E6"/>
<path d="M39.6728 162.225C39.4211 162.142 39.1468 162.162 38.9099 162.28C38.6729 162.399 38.4927 162.606 38.4085 162.856C38.3243 163.107 38.3431 163.38 38.4607 163.617C38.5783 163.854 38.7852 164.035 39.0361 164.12L58.313 170.558C58.5647 170.64 58.839 170.62 59.0759 170.502C59.3129 170.384 59.4931 170.177 59.5773 169.926C59.6615 169.676 59.6427 169.402 59.5251 169.165C59.4075 168.929 59.2006 168.748 58.9497 168.663L39.6728 162.225Z" fill="#E6E6E6"/>
<path d="M43.3629 183.146C42.1799 182.751 41.141 182.015 40.3775 181.032C39.614 180.048 39.1603 178.861 39.0737 177.62C38.9871 176.379 39.2715 175.14 39.891 174.061C40.5105 172.981 41.4372 172.109 42.554 171.554C43.6707 170.999 44.9274 170.787 46.165 170.945C47.4026 171.102 48.5656 171.622 49.5069 172.438C50.4482 173.255 51.1256 174.331 51.4533 175.531C51.7811 176.731 51.7445 178.001 51.3482 179.181C50.8151 180.761 49.6751 182.066 48.1781 182.81C46.681 183.553 44.9494 183.674 43.3629 183.146ZM47.1828 171.778C46.1105 171.42 44.9558 171.387 43.8647 171.683C42.7735 171.979 41.795 172.591 41.0528 173.442C40.3105 174.293 39.838 175.344 39.6949 176.462C39.5518 177.58 39.7445 178.716 40.2488 179.725C40.753 180.734 41.5461 181.571 42.5277 182.131C43.5093 182.691 44.6354 182.948 45.7635 182.87C46.8916 182.791 47.9712 182.382 48.8656 181.692C49.76 181.002 50.4291 180.063 50.7883 178.994C51.2681 177.56 51.158 175.996 50.4821 174.643C49.8062 173.29 48.6197 172.26 47.1829 171.778H47.1828Z" fill="#E6E6E6"/>
<path d="M94.4323 200.202C94.5569 200.244 94.6888 200.262 94.8203 200.254C94.9518 200.246 95.0804 200.212 95.1987 200.154C95.317 200.096 95.4227 200.015 95.5097 199.917C95.5967 199.818 95.6634 199.703 95.7059 199.579C95.7484 199.455 95.7659 199.323 95.7574 199.192C95.7488 199.061 95.7145 198.933 95.6562 198.815C95.598 198.697 95.517 198.592 95.4179 198.505C95.3188 198.419 95.2036 198.353 95.0788 198.31L95.069 198.307L75.7921 191.869C75.5407 191.784 75.2657 191.803 75.0277 191.92C74.7896 192.037 74.6078 192.243 74.5222 192.493C74.4366 192.744 74.4541 193.018 74.571 193.256C74.6879 193.493 74.8945 193.675 75.1456 193.761L75.1554 193.764L94.4323 200.202Z" fill="#E6E6E6"/>
<path d="M96.3078 194.62C96.4328 194.663 96.5649 194.68 96.6967 194.671C96.8285 194.663 96.9572 194.628 97.0756 194.57C97.1939 194.512 97.2995 194.43 97.3863 194.331C97.4731 194.232 97.5394 194.117 97.5813 193.992C97.6232 193.867 97.64 193.735 97.6307 193.604C97.6213 193.473 97.5861 193.344 97.5269 193.227C97.4677 193.109 97.3858 193.004 97.2858 192.918C97.1859 192.832 97.0699 192.767 96.9444 192.725L77.6676 186.288C77.4161 186.203 77.1412 186.221 76.903 186.338C76.6649 186.455 76.4831 186.661 76.3974 186.912C76.3118 187.162 76.3294 187.436 76.4463 187.674C76.5632 187.912 76.7699 188.093 77.0211 188.179L77.0309 188.182L96.3078 194.62Z" fill="#E6E6E6"/>
<path d="M92.6176 173.699C93.8006 174.094 94.8396 174.83 95.6031 175.813C96.3665 176.797 96.8203 177.985 96.9069 179.225C96.9935 180.466 96.709 181.705 96.0895 182.785C95.4701 183.864 94.5433 184.737 93.4266 185.291C92.3098 185.846 91.0532 186.058 89.8156 185.9C88.578 185.743 87.415 185.223 86.4736 184.407C85.5323 183.59 84.855 182.514 84.5272 181.314C84.1995 180.114 84.2361 178.844 84.6324 177.664C85.1654 176.084 86.3055 174.779 87.8025 174.035C89.2995 173.292 91.0312 173.171 92.6176 173.699ZM88.7977 185.067C89.87 185.425 91.0247 185.458 92.1158 185.162C93.207 184.866 94.1855 184.254 94.9278 183.403C95.67 182.553 96.1425 181.502 96.2856 180.383C96.4287 179.265 96.236 178.129 95.7318 177.12C95.2275 176.111 94.4345 175.274 93.4529 174.714C92.4712 174.154 91.3452 173.897 90.217 173.975C89.0889 174.054 88.0094 174.464 87.115 175.154C86.2206 175.843 85.5514 176.782 85.1922 177.851C84.7124 179.285 84.8225 180.85 85.4984 182.202C86.1743 183.555 87.3608 184.585 88.7977 185.067Z" fill="#E6E6E6"/>
<path d="M78.6122 52.1271L71.8075 55.8098L75.5868 62.5469L77.1221 61.7034L74.279 56.5586L79.4821 53.7004L78.6122 52.1271Z" fill="#8D50F0"/>
<path d="M82.9482 53.3784L86.7273 60.1155L79.9228 63.7982L79.0768 62.2675L84.2371 59.4326L81.3699 54.2451L82.9482 53.3784Z" fill="#8D50F0"/>
<path d="M59.0746 112.477L52.2699 116.16L56.0492 122.897L57.5845 122.053L54.7414 116.908L59.9445 114.05L59.0746 112.477Z" fill="#8D50F0"/>
<path d="M63.4107 113.728L67.1898 120.465L60.3852 124.148L59.5392 122.617L64.6995 119.782L61.8323 114.595L63.4107 113.728Z" fill="#8D50F0"/>
</svg>
